<svg xmlns="http://www.w3.org/2000/svg" viewBox="0 0 508 508"><path d="M504 378.8c0 68.8-56.4 125.2-125.2 125.2H129.2C60.4 504 4 448 4 378.8V129.6C4 60.8 60.4 4 129.2 4h249.6C447.6 4 504 60.4 504 129.6v249.2z" fill="#ff312e"/><path d="M406.4 189.2s-2.8-22.4-12-32.4c-12-12.8-25.2-13.6-31.2-14.4-44-3.2-109.2-3.6-109.2-3.6s-65.6.4-109.2 3.6c-6 .8-19.2 1.2-31.2 14-9.2 10-11.6 32.4-11.6 32.4s-2.4 26.4-2.4 52.8v24.8c0 26.4 2.4 52.8 2.4 52.8s2.8 22.4 12 32.4c12 12.8 27.2 12.4 34.4 14 24.8 2.4 106 3.2 106 3.2s65.6 0 109.2-3.2c6-.8 19.2-.8 31.2-13.6 9.2-10 11.6-32.4 11.6-32.4s2.4-26.4 2.4-52.8V242c0-26.4-2.4-52.8-2.4-52.8M222 296.4v-91.2l84 45.6-84 45.6z" fill="#fff"/><path d="M378.8 508H129.2C58 508 0 450 0 378.4V129.2C0 58 58 0 129.2 0h249.6C450 0 508 58 508 128.8v249.6C508 450 450 508 378.8 508zM129.2 8C62.4 8 8 62.4 8 129.2v249.6c0 66.8 54.4 121.6 121.2 121.6h249.6c66.8 0 121.2-54.4 121.2-121.6V129.2C500 62.4 445.6 8.4 378.8 8.4H129.2V8z"/><path d="M370 484H138c-62 0-114-52.4-114-114.4v-232C24 76 76 24 138 24h231.2c2.4 0 4 1.6 4 4s-1.6 4-4 4H138C80.4 32 32 80.4 32 137.6v232C32 427.2 80.8 476 138 476h232c57.6 0 106-48.8 106-106.4V258c0-2.4 1.6-4 4-4s4 1.6 4 4v112c0 61.6-52 114-114 114z"/><path d="M446.8 64.8c-1.2 0-2-.4-2.8-1.2-20.4-20.4-47.6-32-75.2-32-2.4 0-4-1.6-4-4s1.6-4 4-4c29.6 0 59.2 12.4 80.8 34 1.6 1.6 1.6 4 0 5.6-.4 1.2-1.6 1.6-2.8 1.6zM480 234c-2.4 0-4-1.6-4-4v-59.2c0-2.4 1.6-4 4-4s4 1.6 4 4V230c0 2.4-1.6 4-4 4zM221.6 300.4c-.8 0-1.6 0-2-.4-1.2-.8-2-2-2-3.6v-91.2c0-1.6.8-2.8 2-3.6s2.8-.8 4 0l32.4 17.6c2 1.2 2.8 3.6 1.6 5.6-1.2 2-3.6 2.8-5.6 1.6L225.6 212v78l78.4-42.4c2-1.2 4.4-.4 5.6 1.6s.4 4.4-1.6 5.6L223.6 300c-.8.4-1.2.4-2 .4z"/><path d="M253.6 372.8c-3.2 0-81.6-.8-106.4-3.2-1.6-.4-2.8-.4-4.4-.8-8-1.2-21.6-2.8-32.4-14.4-10-10.8-12.4-33.6-12.8-34.4 0-.4-2.4-26.8-2.4-53.2V242c0-26 2.4-52.8 2.4-53.2 0-1.2 2.8-24 13.2-34.8 12-13.2 25.2-14.4 32-15.2h1.2c43.6-3.2 108.8-3.6 109.6-3.6s66.4.4 109.6 3.6h1.6c7.2.8 20 2 32 15.2 10 10.8 12.8 33.6 12.8 34.8 0 .4 2.8 27.2 2.8 53.2v24.8c0 26.4-2.8 52.8-2.8 53.2 0 1.2-3.2 24-13.2 34.8-11.6 12.8-24.8 14-31.6 14.8-.8 0-1.2 0-2 .4-42.8 2.4-108.4 2.8-109.2 2.8zm.4-230c-.8 0-65.6.4-108.8 3.6H144c-6.4.8-17.2 2-27.2 12.8-6.8 7.2-10.4 24-11.2 30 0 0-2.4 26.4-2.4 52V266c0 26 2.4 52 2.4 52.4 0 0 2.4 21.2 10.4 30 8.8 9.6 20.4 11.2 27.6 12 1.6.4 3.2.4 4.4.8 24 2.4 103.6 3.2 105.2 3.2s66 0 108.8-3.2c.4 0 1.2 0 2-.4 6.4-.8 16.8-1.6 26.4-12.4 8.4-8.8 11.2-30 11.2-30s2.8-26.4 2.8-52V242c0-26-2.4-52-2.8-52.4 0 0-2.4-21.2-10.8-30-10-10.8-20.8-12-27.2-12.4H362c-42.4-3.6-107.6-4.4-108-4.4z"/></svg>