<svg xmlns="http://www.w3.org/2000/svg" width="512" height="512" viewBox="0 0 191.107 191.107"><path d="M92.873 40.292c-.189-.19-.413-.293-.621-.441-1.227-4.633-3.115-9.179-4.558-13.687-1.016-3.178-1.382-7.913-2.76-11.606.714-1.938-.147-4.601-2.398-5.146C42.984-.175 13.154 50.265 4.114 81.272-.922 98.547.091 118.303.133 136.071c.017 7.392-1.565 29.304 5.736 35.795-1.902 2.098-1.656 6.224 1.728 6.794 12.318 2.072 25.032 2.877 37.501 3.404 5.972.253 19.392 2.799 24.132-2.565 2.015 1.049 4.92.071 5.22-2.996 2.198-22.381 3.515-45.044 3.65-67.533.011-1.885-.777-3.246-1.919-4.118.86-2.577-.963-5.72-4.57-5.019-8.228 1.598-15.899.939-23.708-1.201.171-.557.06-1.169-.562-1.665-13.547-10.797 36.482-45.225 44.58-49.286 1.379-.692 2.436-2.521 2.329-4.062-.094-1.365-.396-2.339-1.377-3.327zM21.621 62.179c.015.017.017.035.032.052 5.52 5.821 11.856 13.636 19.245 17.96-2.582 4.494-3.785 8.749-2.8 12.382a881.309 881.309 0 0 0-21.777-17.756c1.457-4.379 3.252-8.589 5.3-12.638zm-10.745 108.55c.747-5.443 1.07-11.06 1.173-16.762 4.198 5.199 8.721 10.096 13.641 14.624 1.009.928 2.112 1.961 3.282 2.997-6.032-.311-12.058-.659-18.096-.859zm34.222 1.45a316.323 316.323 0 0 1-7.916-.216c-3.399-2.311-6.876-4.497-10.031-7.266-4.957-4.349-9.51-9.199-13.732-14.258-.415-.496-.901-.607-1.354-.516.002-6.147-.216-12.378-.441-18.605 7.18 6.527 13.75 13.646 20.4 20.73 6.14 6.541 12.629 14.352 20.275 19.618-2.761.259-5.32.537-7.201.513zm14.55-.918c-7.608-7.876-16.711-14.532-24.549-22.288-7.629-7.549-15.332-14.954-23.619-21.77-.185-5.233-.326-10.441-.332-15.59 9.681 9.21 18.705 19.142 27.962 28.757 5.25 5.452 15.878 20.828 24.664 20.501 2.536-.096 2.758-3.34.569-4.205-3.458-1.368-7.263-5.88-10.029-8.319-5.389-4.751-10.55-9.766-15.725-14.746-9.081-8.74-17.831-17.979-27.41-26.189.045-2.731.129-5.445.3-8.119.177-2.761.497-5.48.897-8.175a2741.027 2741.027 0 0 1 27.689 28.342c8.36 8.687 16.595 19.008 26.408 26.187-.113 8.938-.04 17.87.564 26.771-2.018-.877-4.631-1.147-7.389-1.157zm7.566-61.87c-.021 3.085-.098 6.176-.161 9.266a484.603 484.603 0 0 0-8.768-8.309c3.012-.038 6.014-.331 8.929-.957zm-17.982.258a1670.79 1670.79 0 0 1 15.904 15.729c.551.552 1.16.765 1.766.832-.102 3.996-.212 7.992-.301 11.988-7.373-7.626-15.87-14.56-23.438-21.838-9.939-9.557-19.839-19.169-30.27-28.189.616-3.427 1.455-6.77 2.419-10.058a777.122 777.122 0 0 1 23.033 21.012c-.802 1.055-1.2 1.924-1.274 3.378-.124 2.436 1.729 4.39 3.896 5.117 2.655.893 5.435 1.562 8.265 2.029zm-5.624-33.6c-2.546-1.902-5.253-3.641-7.687-5.636-4.097-3.358-7.933-7.032-11.776-10.673a1.687 1.687 0 0 0-1.013-.461c1.992-3.612 4.295-7.002 6.738-10.273 3.235 3.119 6.557 6.143 10.035 8.997 3.479 2.854 7.757 7.104 12.242 8.272-3.23 3.234-6.179 6.533-8.539 9.774zm11.24-12.399a1.954 1.954 0 0 0-.365-.482c-3.101-2.915-7.434-4.785-10.901-7.303-4.061-2.95-7.852-6.307-11.529-9.747 2.285-2.808 4.775-5.427 7.384-7.917a183.598 183.598 0 0 1 13.218 11.112c2.884 2.664 5.718 5.99 9.064 8.249-2.335 1.966-4.655 3.995-6.871 6.088zm-.618-18.635a235.349 235.349 0 0 0-12.177-9.222 83.087 83.087 0 0 1 10.835-8.033c3.933 3.012 7.645 6.287 11.307 9.672 3.464 3.201 6.985 7.065 11.085 9.673a209.23 209.23 0 0 0-9.648 7.248c-3.161-3.596-7.804-6.43-11.402-9.338zm25.905-1.229c-4.114-4.152-9.482-7.499-13.964-11.19-3.034-2.498-6.126-4.898-9.323-7.147a80.173 80.173 0 0 1 18.401-7.304c.523 2.96 1.913 5.997 2.937 8.496 1.939 4.731 4.235 9.549 6.688 14.18a109.364 109.364 0 0 0-4.739 2.965zm108.316 9.553c-1.345-4.826-2.979-9.545-4.693-14.259-1.922-5.292-3.18-10.975-5.891-15.923-.035-.065-.086-.091-.123-.153.547-1.909-.365-4.141-2.713-5.008-15.938-5.887-34.822 11.034-43.454 22.635-8.955 12.036-15.781 26.052-16.392 40.827-1.277.05-2.521.914-2.617 2.631-1.74 30.81-.881 61.678-4.051 92.414-.503 4.87 5.094 6.004 8.151 3.524.149.026.26.098.419.11 5.773.454 11.56.681 17.347.72.432.252.846.554 1.291.759 1.071.496 2.057.011 2.47-.786 4.178-.033 8.355-.134 12.53-.359 6.59-.357 16.85-.354 21.931-5.528 1.771 1.151 3.894-.412 3.65-2.369 1.138.429 2.408.47 3.479-.253 6.524-4.398 4.38-21.016 4.824-27.927.832-12.955 1.835-25.988 1.541-38.978-.062-2.748-1.821-4.272-3.849-4.718-.131-.067-.218-.165-.363-.221-10.118-3.932-21.191-3.044-31.851-2.432.079-2.358.646-4.676 1.533-6.942.789-.317 1.079-1.229.887-2.064 6.403-12.995 24.068-23.718 35.172-26.964 4.743-1.386 4.14-6.905.772-8.736zm-18.7-26.012c.468 2.494 1.277 4.998 2.274 7.49-2.522-2.056-5.081-4.074-7.535-6.16 1.739-.466 3.49-.89 5.261-1.33zm-43.566 45.515c3.079 3.698 6.367 7.183 10.028 10.355 1.899 1.645 4.062 3.424 6.381 4.899-1.721 4.356-1.881 8.509.354 12.034-.195.24-.407.466-.536.754-.405.897-.614 1.638-.681 2.363-6.379-5.959-12.75-11.928-19.074-17.945.841-4.236 2.096-8.378 3.528-12.46zm-7.307 99.908c.221-2.343.374-4.687.538-7.029 1.764 2.296 3.601 4.528 5.563 6.662-2.035.116-4.069.221-6.101.367zm11.439-.683c-.631-.525-1.265-1.052-1.854-1.607-3.055-2.883-5.806-6.071-8.414-9.357-.095-.119-.208-.181-.317-.257.149-2.738.287-5.475.376-8.214 4.312 5.339 9.174 10.188 14.16 14.901 1.364 1.29 2.75 2.695 4.18 4.077-2.709.173-5.42.314-8.131.457zm17.549-1.22c-.409.044-.821.067-1.231.107-2.845-2.421-5.933-4.642-8.699-7.09-5.52-4.881-10.893-10.018-15.731-15.581-.55-.633-1.293-.733-1.983-.55.076-3.903.087-7.809.062-11.715 6.826 6.554 13.682 13.075 20.424 19.722 3.987 3.932 8.483 9.579 13.349 13.975-2.117.493-4.199.922-6.191 1.132zm14.589-3.104c-5.173-5.769-12.714-10.773-18.09-15.661-7.989-7.266-15.827-14.804-24.17-21.676a574.874 574.874 0 0 0-.273-9.731c6.513 9.114 14.593 16.975 22.776 24.597 7.627 7.104 14.752 14.725 22.076 22.092-.772.122-1.536.219-2.319.379zm-10.934-21.412c-11.158-9.694-22.063-19.392-31.076-31.177a1.946 1.946 0 0 0-.756-.585c-.119-2.8-.233-5.6-.374-8.399 8.64 9.207 18.136 17.709 27.133 26.534 8.969 8.796 16.566 18.984 25.475 27.703a32.15 32.15 0 0 0 .301 5.309c-5.675-7.412-14-13.564-20.703-19.385zm22.439-4.818c-.124 2.249-.716 5.855-1.237 9.813-5.441-7.615-13.99-14.094-20.376-19.925-10.939-9.988-22.092-19.81-33.251-29.556-.087-1.579-.147-3.157-.24-4.736 1.164-.094 2.33-.958 2.44-2.357.137-1.718.346-3.428.593-5.131 7.702 7.883 15.485 15.688 23.227 23.533 8.347 8.46 16.175 19.502 25.784 26.444 1.221.883 2.508.315 3.218-.705-.05.874-.109 1.748-.158 2.62zm1.981-35.264c-.229 5.626-.542 11.251-.876 16.875-2.331-2.324-5.152-4.28-7.591-6.397-3.297-2.862-6.312-5.932-9.325-9.059 5.932-.902 11.877-1.837 17.792-1.419zm-20.449 1.814c2.363 3.739 5.536 6.946 8.658 10.048 3.394 3.373 6.655 7.52 10.602 10.216-.154 2.553-.31 5.105-.461 7.658-5.17-9.214-15.624-16.794-23.213-23.979-1.085-1.028-2.183-2.042-3.271-3.067 2.555-.17 5.118-.502 7.685-.876zM144.709 83.83c-2.476-1.275-4.947-2.586-7.216-4.373-3.711-2.923-7.013-6.352-10.137-9.902 2.141-5.478 4.78-10.751 7.771-15.79 2.677 3.096 5.466 6.084 8.466 8.894 3.355 3.142 7.104 7.02 11.429 8.851-4.164 3.939-7.822 8.158-10.313 12.32zm13.239-14.964c-.004-.006-.004-.012-.009-.019-2.826-3.848-7.464-6.402-11.119-9.415-3.396-2.799-6.535-5.875-9.538-9.083 1.019-1.52 2.127-2.975 3.272-4.399 4.634 3.306 9.192 6.701 13.648 10.247 3.187 2.536 6.256 5.51 9.591 7.966a105.383 105.383 0 0 0-5.845 4.703zm10.354-7.894c-3.394-3.18-7.521-5.829-11.195-8.537-4.521-3.331-9.154-6.499-13.854-9.569 2.505-2.743 5.285-5.207 8.194-7.506 4.507 3.743 8.875 7.638 13.033 11.779 3.249 3.237 6.153 6.997 9.258 10.483a91.567 91.567 0 0 0-5.436 3.35zm11.568-6.455c-3.455-4.101-7.758-7.749-11.537-11.232-4.185-3.859-8.678-7.338-13.284-10.669 1.549-1.026 3.128-1.761 4.721-2.4 6 6.189 12.361 12.449 19.046 17.822 1.12 1.894 2.248 3.756 3.328 5.563-.709.247-1.493.582-2.274.916z" fill="#e5c671"/></svg>