<svg xmlns="http://www.w3.org/2000/svg" width="381.188" height="381.188" viewBox="0 0 381.188 381.188"><path d="M306.501 325.885c1.635-5.92 2.008-12.191.771-18.449-3.375-16.851-16.908-29.299-32.93-31.073-.116-.047-.14-.14-.269-.163-17.761-2.569-31.072-29.356-39.854-39.936-8.758-10.592-24.616-27.769-32.743-35.651-.49-.49-1.284-1.553-2.335-3.094L224.188 27.85l-42.353 135.536-1.086 3.41c-27.698-48.203-72.439-130.48-72.439-130.48s55.373 165.838 57.299 171.595c-10.007 24.183-20.65 54.999-45.307 56.261-.082.023-.07.116-.146.163-18.817.888-33.922 18.403-33.922 39.959 0 22.116 15.893 40.122 35.394 40.122 11.992 0 23.196-8.302 33.268-16.744 2.545-10.311 2.125-14.854 2.125-23.378a44.474 44.474 0 0 0-2.832-15.694c-2.989-11.957 25.433-70.693 30.874-74.266 27.19 16.698 61.977 59.518 53.534 81.471.035.012.128.012.175.023-4.122 7.94-5.559 17.037-3.736 26.074 3.644 18.217 19.115 31.436 36.782 31.436 2.324 0 4.659-.223 6.937-.689 8.221-1.646 15.344-6.2 20.622-12.763 3.585.817 8.478 2.499 11.945 5.944 12.401 13.311 24.207 3.631 26.916 0 2.581-3.445-25.688-6.389-31.737-19.945zm-184.872 6.433c-12.839 0-23.29-12.564-23.29-28.013s10.451-28.036 23.29-28.036c4.245 0 8.191 1.494 11.625 3.876.707.561 1.413 1.098 2.125 1.635 5.768 5.114 9.558 13.254 9.558 22.514 0 15.46-10.463 28.024-23.308 28.024zm59.092-130.584c-4.233 0-7.672-3.445-7.672-7.678s3.439-7.678 7.672-7.678 7.678 3.445 7.678 7.678-3.428 7.678-7.678 7.678zm111.183 128.11c-3.597 5.768-9.132 9.645-15.53 10.93a23.043 23.043 0 0 1-4.555.455c-11.934 0-22.396-9.143-24.918-21.707-1.402-7.03-.164-14.153 3.502-20.027 3.609-5.756 9.12-9.645 15.531-10.918a23.139 23.139 0 0 1 4.554-.467c11.935 0 22.409 9.143 24.931 21.708 1.401 7.029.141 14.14-3.515 20.026z"/><path d="M134.579 133.96l-3.264-10.848c-8.787-.607-17.323-1.179-25.444-1.897-9.733-.899-18.917-1.781-27.36-2.861-8.431-1.121-16.144-2.306-22.91-3.643-6.755-1.39-12.611-2.814-17.335-4.292-4.723-1.536-8.372-2.942-10.789-4.069-2.412-1.174-3.679-1.851-3.679-1.851s1.133.87 3.346 2.4c2.26 1.483 5.657 3.614 10.247 5.739 9.172 4.332 23.004 8.91 39.936 12.535a410.729 410.729 0 0 0 27.47 4.986c9.47 1.407 19.453 2.75 29.782 3.801zm35.872 3.182c4.881.321 9.768.642 14.696.969l3.649-11.707c-6.493-.35-12.961-.695-19.384-1.027-1.915-.123-3.801-.228-5.705-.339l6.744 12.104zm210.211 23.185c-.315-.637-.946-1.46-1.833-2.499-1.822-2.02-5.021-4.607-9.61-6.89-4.555-2.306-10.358-4.531-17.177-6.469-6.785-1.985-14.551-3.801-23.051-5.319-8.524-1.582-17.773-3.001-27.594-4.186-9.797-1.208-20.166-2.359-30.874-3.229-10.708-.87-21.777-1.874-33.034-2.499-7.637-.467-15.355-.935-23.098-1.401l-1.576 11.899c8.045.397 16.079.776 24.02 1.173 11.233.619 22.292.911 32.953 1.472 10.685.572 20.995.992 30.758 1.588 9.75.648 18.963 1.267 27.44 2.067 16.933 1.629 30.944 3.889 40.263 7.117 4.624 1.641 8.058 3.48 10.112 5.155 1.005.847 1.752 1.553 2.149 2.114.443.525.677.817.677.817s-.163-.315-.525-.91zM44.601 100.745c6.854 2.306 14.719 4.484 23.413 6.334a351.72 351.72 0 0 0 28.194 4.893c10.048 1.36 20.662 2.604 31.662 3.457.374.023.765.046 1.15.082l-3.252-10.836c-9.914-.502-19.501-.969-28.604-1.658-9.96-.794-19.349-1.641-27.967-2.75-8.611-1.162-16.464-2.44-23.365-3.958-6.878-1.542-12.804-3.193-17.592-4.904a95.23 95.23 0 0 1-10.842-4.612c-2.406-1.343-3.684-2.061-3.684-2.061s1.15.911 3.311 2.61c2.271 1.564 5.611 3.97 10.264 6.276a126.355 126.355 0 0 0 17.312 7.127zm150.255 6.194c-10.941-.315-21.86-.625-32.62-.935-3.118-.123-6.218-.228-9.301-.327l6.609 11.875c.742.035 1.483.082 2.224.105 9.698.397 19.53.794 29.368 1.197l3.72-11.915zm102.77 6.429c-10.077-1.244-20.691-2.318-31.691-3.071s-22.35-1.565-33.887-1.985c-4.975-.193-9.973-.38-14.994-.561l-1.564 11.823c5.418.146 10.802.274 16.149.42 11.49.409 22.806.502 33.712.946 10.93.456 21.463.812 31.435 1.419 9.949.671 19.36 1.413 27.99 2.417 8.618 1.051 16.453 2.318 23.296 3.889 6.843 1.6 12.705 3.416 17.282 5.488 4.577 2.067 7.964 4.233 9.995 6.025 1.098.823 1.764 1.629 2.277 2.113.502.502.759.765.759.765s-.222-.286-.642-.87c-.433-.561-.993-1.483-1.95-2.487-1.799-2.107-4.835-4.974-9.318-7.689-8.922-5.558-23.19-10.591-40.602-14.106-8.699-1.787-18.204-3.34-28.247-4.536zM148.054 94.141c11.531.467 23.249.946 34.956 1.413 5.091.128 10.188.263 15.256.391l3.678-11.776c-6.177-.239-12.372-.467-18.566-.707-11.683-.333-23.366-.671-34.868-.993-2.908-.105-5.798-.216-8.682-.298l6.626 11.888a74.91 74.91 0 0 0 1.6.082zM54.311 83.562a356.795 356.795 0 0 0 28.194 4.887c10.048 1.366 20.674 2.61 31.662 3.456 2.61.205 5.29.397 7.929.602l-3.322-11.064c-1.302-.047-2.633-.082-3.923-.158-10.907-.549-21.428-1.04-31.389-1.792-9.96-.8-19.36-1.646-27.978-2.762-8.624-1.156-16.476-2.44-23.366-3.958-6.878-1.542-12.804-3.188-17.592-4.887a96.388 96.388 0 0 1-10.854-4.618C1.279 61.93 0 61.212 0 61.212s1.15.911 3.311 2.604c2.26 1.582 5.611 3.97 10.258 6.282 4.63 2.341 10.439 4.863 17.305 7.135 6.86 2.3 14.743 4.472 23.437 6.329zm164.191 12.926c11.292.379 22.396.49 33.128.917 10.918.444 21.451.812 31.423 1.425 9.961.671 19.361 1.413 27.979 2.417 8.618 1.051 16.465 2.318 23.308 3.883 6.831 1.605 12.705 3.421 17.282 5.488s7.94 4.233 9.995 6.025c1.086.829 1.775 1.629 2.289 2.119l.747.765s-.21-.286-.63-.876c-.433-.561-1.005-1.495-1.962-2.487-1.798-2.102-4.823-4.975-9.318-7.684-8.909-5.576-23.19-10.597-40.59-14.112-8.723-1.792-18.204-3.345-28.271-4.554-10.077-1.244-20.68-2.324-31.691-3.077-10.451-.724-21.217-1.483-32.17-1.897l-1.519 11.648z"/></svg>