<svg xmlns="http://www.w3.org/2000/svg" viewBox="0 0 489.044 489.044"><path fill="#af9b75" d="M430.218 103.044l-231.2-94.1 31.3 94.1-31.4 94z"/><path d="M439.318 103.044c0-.6-.1-1.1-.2-1.6 0-.2-.1-.3-.1-.5-.1-.4-.2-.7-.3-1.1-.1-.2-.1-.3-.2-.5-.2-.5-.4-.9-.7-1.4l-.1-.1c-.3-.4-.6-.8-.9-1.1l-.3-.3c-.3-.3-.6-.5-.9-.7-.1-.1-.3-.2-.4-.3-.3-.2-.7-.4-1.1-.6-.1-.1-.2-.1-.3-.2l-231.2-94c-3.3-1.3-7-.6-9.6 1.8s-3.5 6.1-2.4 9.5l30.3 91.2-30.5 91.2c-1.1 3.4-.2 7.1 2.4 9.5 1.7 1.6 3.9 2.5 6.2 2.5 1.1 0 2.3-.2 3.4-.7l231.4-94h.1c.1 0 .2-.1.3-.2.4-.2.8-.4 1.1-.6.1-.1.3-.2.4-.3.3-.2.6-.5.9-.7l.3-.3c.4-.4.7-.8 1-1.2.3-.4.5-.9.7-1.4.1-.2.1-.3.2-.5.1-.4.2-.7.3-1.1 0-.2.1-.3.1-.5 0-.7.1-1.3.1-1.8zm-225.5-78.3l170.1 69.2h-147.1l-23-69.2zm23 87.3h147l-170.1 69.2 23.1-69.2zm-83.8 376.9c2.4 0 4.7-1 6.4-2.7s2.7-4 2.7-6.4-1-4.7-2.7-6.4c-1.7-1.7-4-2.7-6.4-2.7s-4.7 1-6.4 2.7-2.7 4-2.7 6.4 1 4.7 2.7 6.4c1.7 1.8 4 2.7 6.4 2.7zm248.3-26.2c2.3 0 4.5-.8 6.3-2.5 3.6-3.5 3.7-9.2.2-12.8-3.5-3.6-9.2-3.7-12.8-.3-3.6 3.5-3.7 9.2-.3 12.8 1.8 1.8 4.2 2.8 6.6 2.8zm14.8-26.5c1.3.7 2.7 1 4.1 1 3.3 0 6.5-1.8 8.1-5 2.3-4.5.5-9.9-4-12.2-4.5-2.3-9.9-.5-12.2 4-2.3 4.5-.5 9.9 4 12.2zm5.1-91.9c4.3-2.6 5.6-8.2 3-12.4-2.6-4.3-8.2-5.6-12.5-3s-5.6 8.2-3 12.5c1.7 2.8 4.7 4.3 7.7 4.3 1.7-.1 3.3-.5 4.8-1.4zm-1.9 23.6c.9 4.3 4.7 7.2 8.8 7.2.6 0 1.3-.1 1.9-.2 4.9-1 8-5.8 7-10.7-1-4.9-5.8-8-10.7-7-4.9 1-8 5.8-7 10.7zm-16.7-49.5c3.2-3.9 2.6-9.6-1.3-12.8-3.9-3.2-9.6-2.6-12.8 1.3-3.2 3.9-2.6 9.6 1.3 12.8 1.7 1.4 3.7 2 5.7 2 2.7 0 5.3-1.1 7.1-3.3zm-352.8-106c.7 4.5 4.6 7.8 9 7.8.4 0 .9 0 1.3-.1 5-.7 8.4-5.3 7.7-10.3s-5.3-8.4-10.3-7.7-8.4 5.3-7.7 10.3zm25.4-70.6c-4.3-2.5-9.9-1.1-12.4 3.2-2.5 4.3-1.1 9.9 3.2 12.4 1.4.8 3 1.2 4.6 1.2 3.1 0 6.1-1.6 7.8-4.5 2.6-4.2 1.2-9.8-3.2-12.3zm12.8 133.6c2.4 0 4.9-1 6.6-2.9 3.4-3.7 3.2-9.4-.5-12.8s-9.4-3.2-12.8.5-3.2 9.4.5 12.8c1.8 1.6 4 2.4 6.2 2.4zm30.2 0c-4.6-2-9.9.1-11.9 4.7s.1 9.9 4.7 11.9c1.2.5 2.4.7 3.6.7 3.5 0 6.8-2 8.3-5.5 2-4.5-.1-9.8-4.7-11.8zm-20.2-155.9c-3.2-3.8-9-4.3-12.8-1-3.8 3.2-4.3 9-1 12.8 1.8 2.1 4.4 3.2 6.9 3.2 2.1 0 4.1-.7 5.9-2.2 3.7-3.3 4.2-9 1-12.8zm-40.3 68.7c.6.1 1.2.2 1.7.2 4.2 0 8.1-3 8.9-7.4.9-4.9-2.3-9.7-7.2-10.6-4.9-.9-9.7 2.3-10.6 7.2-.9 4.9 2.3 9.7 7.2 10.6zm11 62.1c1.4 0 2.9-.3 4.2-1 4.4-2.3 6.1-7.8 3.8-12.2-2.3-4.4-7.8-6.1-12.2-3.8s-6.1 7.8-3.8 12.2c1.6 3 4.7 4.8 8 4.8zm369.8 148.6c.6-5-2.9-9.5-7.9-10.1s-9.5 2.9-10.1 7.8c-.6 5 2.9 9.5 7.8 10.1.4.1.8.1 1.2.1 4.5 0 8.4-3.3 9-7.9zm-229.3-116.5c-5 0-9.1 4-9.1 9.1 0 5 4.1 9.1 9.1 9.1s9.1-4.1 9.1-9.1c-.1-5.1-4.1-9.1-9.1-9.1zm94.2 197.5c0 5 4 9.1 9.1 9.1 5 0 9.1-4.1 9.1-9.1s-4.1-9.1-9.1-9.1-9.1 4.1-9.1 9.1zm-95.7 0c0 5 4 9.1 9.1 9.1 5 0 9.1-4.1 9.1-9.1s-4.1-9.1-9.1-9.1-9.1 4.1-9.1 9.1zm97.1-197.5c-5 0-9.1 4-9.1 9.1 0 5 4.1 9.1 9.1 9.1s9.1-4.1 9.1-9.1c0-5.1-4-9.1-9.1-9.1zm-63.7 0c-5 0-9.1 4-9.1 9.1 0 5 4 9.1 9.1 9.1 5 0 9.1-4.1 9.1-9.1-.1-5.1-4.1-9.1-9.1-9.1zm-65.2 197.5c0 5 4 9.1 9.1 9.1 5 0 9.1-4.1 9.1-9.1s-4.1-9.1-9.1-9.1c-5.1 0-9.1 4.1-9.1 9.1zm63.7 0c0 5 4.1 9.1 9.1 9.1s9.1-4.1 9.1-9.1-4-9.1-9.1-9.1c-5 0-9.1 4.1-9.1 9.1zm31.9 0c0 5 4 9.1 9.1 9.1 5 0 9-4.1 9-9.1s-4-9.1-9-9.1-9.1 4.1-9.1 9.1zm1.5-197.5c-5 0-9.1 4-9.1 9.1 0 5 4 9.1 9.1 9.1 5 0 9.1-4.1 9.1-9.1-.1-5.1-4.1-9.1-9.1-9.1zm-104.8 9c0 5 4.1 9.1 9.1 9.1s9.1-4.1 9.1-9.1-4-9.1-9.1-9.1c-5 .1-9.1 4.1-9.1 9.1zm-9.7-188.6c-.1-5-4.3-9-9.3-8.8-5 .1-8.9 4.3-8.8 9.3.1 5 4.3 8.9 9.3 8.8 5-.2 9-4.3 8.8-9.3zm-22.1 187.8c-.3 5 3.4 9.3 8.4 9.7h.6c4.7 0 8.7-3.6 9-8.4.3-5-3.4-9.3-8.4-9.7s-9.3 3.4-9.6 8.4zm-9.6-184.7c-1.8-4.7-7-7-11.7-5.2s-7 7-5.2 11.7c1.4 3.6 4.8 5.8 8.5 5.8 1.1 0 2.2-.2 3.2-.6 4.7-1.8 7-7 5.2-11.7zm249.7 194.2c1.7-4.7-.7-9.9-5.5-11.6-4.7-1.7-9.9.7-11.6 5.4-1.7 4.7.7 9.9 5.5 11.6 1 .4 2.1.5 3.1.5 3.7.1 7.2-2.2 8.5-5.9zm-39.7-17.7c-5 0-9.1 4-9.1 9s4 9.1 9 9.1h.1c5 0 9-4 9.1-9-.1-5-4.1-9.1-9.1-9.1zm38.2 198.1c1.3 0 2.5-.3 3.8-.8 4.6-2.1 6.6-7.5 4.5-12-2.1-4.6-7.4-6.6-12-4.5s-6.6 7.5-4.5 12c1.5 3.3 4.8 5.3 8.2 5.3zm-39.7-.2c.4 4.7 4.4 8.3 9 8.3h.8c5-.4 8.7-4.8 8.2-9.8-.4-5-4.8-8.7-9.8-8.2-4.9.3-8.6 4.7-8.2 9.7z" fill="#6c5830"/><path d="M188.218 109.444c1.7-1.7 2.6-4 2.6-6.4s-1-4.7-2.6-6.4c-1.7-1.7-4-2.7-6.4-2.7s-4.7 1-6.4 2.7-2.7 4-2.7 6.4 1 4.7 2.7 6.4c1.7 1.7 4 2.7 6.4 2.7 2.4-.1 4.7-1 6.4-2.7z" fill="#6c5830"/></svg>