<svg xmlns="http://www.w3.org/2000/svg" width="47.002" height="47.002" viewBox="0 0 47.002 47.002"><path d="M45.191 21.692h-1.894c-.862-9.524-8.467-17.128-17.991-17.991V1.809a1.806 1.806 0 1 0-3.614-.001v1.894c-9.524.862-17.128 8.466-17.991 17.99H1.808a1.809 1.809 0 0 0 0 3.617h1.894c.863 9.523 8.467 17.127 17.991 17.99v1.895a1.809 1.809 0 0 0 3.616 0v-1.895c9.524-.863 17.129-8.467 17.991-17.99h1.894c.998 0 1.809-.811 1.809-1.809s-.814-1.808-1.812-1.808zM21.692 7.338v1.7a1.808 1.808 0 0 0 3.617 0v-1.7c6.525.726 11.896 5.323 13.756 11.439-3.516-2.757-9.125-6.123-15.564-6.123-6.44 0-12.049 3.366-15.565 6.123 1.859-6.115 7.23-10.714 13.756-11.439zM16.269 23.5c0-3.987 3.244-7.23 7.231-7.23 3.986 0 7.23 3.243 7.23 7.23 0 3.986-3.244 7.23-7.23 7.23-3.987.001-7.231-3.243-7.231-7.23zm-2.794 4.129a33.19 33.19 0 0 1-5.492-4.132 33.066 33.066 0 0 1 5.497-4.139 10.783 10.783 0 0 0-.005 8.271zm20.05-8.257a33.233 33.233 0 0 1 5.492 4.132 33.175 33.175 0 0 1-5.498 4.14c.53-1.277.826-2.677.826-4.143a10.754 10.754 0 0 0-.82-4.129zm-8.216 20.291v-1.7a1.809 1.809 0 0 0-3.617 0v1.7c-6.526-.727-11.897-5.323-13.757-11.439 3.516 2.758 9.125 6.123 15.565 6.123 6.439 0 12.049-3.365 15.564-6.123-1.859 6.115-7.23 10.714-13.755 11.439z"/><circle cx="23.5" cy="23.5" r="4.52"/></svg>