<svg xmlns="http://www.w3.org/2000/svg" viewBox="0 0 299.998 299.998"><path d="M139.414 96.193c-22.673 0-41.056 18.389-41.056 41.062 0 22.678 18.383 41.062 41.056 41.062 22.678 0 41.059-18.383 41.059-41.062.001-22.673-18.379-41.062-41.059-41.062zm19.841 50.778h-12.06v12.06a7.78 7.78 0 0 1-7.781 7.781 7.78 7.78 0 0 1-7.781-7.781v-12.06h-12.06a7.78 7.78 0 0 1-7.781-7.781 7.78 7.78 0 0 1 7.781-7.781h12.06v-12.063a7.78 7.78 0 0 1 7.781-7.781 7.78 7.78 0 0 1 7.781 7.781v12.063h12.06a7.78 7.78 0 0 1 7.781 7.781 7.779 7.779 0 0 1-7.781 7.781z"/><path d="M149.997 0C67.157 0 .001 67.158.001 149.995s67.156 150.003 149.995 150.003 150-67.163 150-150.003S232.836 0 149.997 0zm75.441 221.254c-2.371 2.376-5.48 3.561-8.59 3.561s-6.217-1.185-8.593-3.561l-34.145-34.147a60.43 60.43 0 0 1-34.697 10.896c-33.548 0-60.742-27.196-60.742-60.744s27.194-60.742 60.742-60.742 60.744 27.194 60.744 60.739a60.434 60.434 0 0 1-9.28 32.256l34.56 34.562c4.748 4.743 4.748 12.438.001 17.18z"/></svg>