<svg xmlns="http://www.w3.org/2000/svg" viewBox="0 0 512 512"><path d="M512 306.387v-3.32c0-11.906-9.687-21.593-21.593-21.593h-7.84l-6.738-142.151a8.047 8.047 0 0 0-8.458-7.692 8.084 8.084 0 0 0-7.692 8.458l6.701 141.384h-66.044l9.448-199.34h47.148l1.402 29.583c.211 4.459 3.994 7.929 8.458 7.692a8.084 8.084 0 0 0 7.692-8.458l-1.728-36.46c.015-.275.016-.552.003-.829l-1.457-30.338c-.008-.158-.029-.313-.045-.469l-1.266-26.685h2.193c4.466 0 8.084-3.619 8.084-8.084S476.652 0 472.186 0h-77.654c-4.466 0-8.084 3.619-8.084 8.084s3.619 8.084 8.084 8.084h2.194l-1.264 26.688c-.016.155-.038.309-.045.467l-1.457 30.338c-.013.277-.012.554.003.829l-9.811 206.983h-10.64L363.7 74.489c.015-.275.016-.551.003-.828l-1.457-30.338c-.008-.158-.029-.312-.045-.468l-1.266-26.686h2.194c4.466 0 8.084-3.619 8.084-8.084S367.594 0 363.129 0h-77.654c-4.466 0-8.084 3.619-8.084 8.084s3.618 8.084 8.084 8.084h2.194l-1.265 26.688c-.016.155-.038.309-.045.467l-1.457 30.338c-.013.277-.012.554.003.829l-9.81 206.983h-12.189v-18.032a8.086 8.086 0 0 0-4.251-7.118 8.078 8.078 0 0 0-8.283.369l-64.86 42.758v-36.01a8.086 8.086 0 0 0-4.251-7.118 8.078 8.078 0 0 0-8.283.369l-64.86 42.758V263.44a8.086 8.086 0 0 0-4.251-7.118 8.078 8.078 0 0 0-8.283.369L18.192 307.71a8.084 8.084 0 0 0-3.635 6.75v152.231C6.099 469.621 0 477.646 0 487.087v3.32C0 502.313 9.687 512 21.593 512h468.813c11.906 0 21.593-9.687 21.593-21.593v-3.32c0-9.835-6.616-18.138-15.625-20.737V327.124c9.01-2.599 15.626-10.902 15.626-20.737zM412.91 16.168h40.895l.923 19.458h-42.74l.922-19.458zm-1.688 35.627h44.272l.672 14.17h-45.615l.671-14.17zM303.854 16.168h40.894l.923 19.458h-42.74l.923-19.458zm-1.689 35.627h44.272l.672 14.17h-45.615l.671-14.17zm-1.438 30.338h47.148l9.448 199.34h-66.044l9.448-199.34zm-37.824 245.848h138.614a8.082 8.082 0 0 0 8.084-8.084 8.083 8.083 0 0 0-8.084-8.084H262.903v-14.17h227.504a5.432 5.432 0 0 1 5.425 5.425v3.32a5.432 5.432 0 0 1-5.425 5.425h-61.225c-4.466 0-8.084 3.619-8.084 8.084s3.619 8.084 8.084 8.084h51.024v137.511H262.903V327.981zm-77.394-9.165l61.226-40.362v187.037h-61.226V318.816zm-77.393 0l61.226-40.362v187.037h-61.226V318.816zm-77.392 0l61.223-40.362v187.037H30.724V318.816zm465.109 171.591h-.001a5.432 5.432 0 0 1-5.425 5.425H21.593a5.432 5.432 0 0 1-5.425-5.425v-3.32a5.432 5.432 0 0 1 5.425-5.425h468.815a5.432 5.432 0 0 1 5.425 5.425v3.32z"/><path d="M457.925 342.538H286.034a8.082 8.082 0 0 0-8.084 8.084v92.23a8.083 8.083 0 0 0 8.084 8.084h171.891a8.082 8.082 0 0 0 8.084-8.084v-92.23a8.082 8.082 0 0 0-8.084-8.084zm-122.677 92.229H294.12v-29.946h41.128v29.946zm0-46.115H294.12v-29.946h41.128v29.946zm57.296 46.115h-41.128v-29.946h41.128v29.946zm.002-46.115h-41.128v-29.946h41.128v29.946zm57.296 46.116h-41.128v-29.946h41.128v29.946zm0-46.116h-41.128v-29.946h41.128v29.946zm-221.145-46.114h-25.152a8.082 8.082 0 0 0-8.084 8.084 8.082 8.082 0 0 0 8.084 8.084h25.152a8.082 8.082 0 0 0 8.084-8.084 8.082 8.082 0 0 0-8.084-8.084zm0 26.291h-25.152a8.082 8.082 0 0 0-8.084 8.084 8.083 8.083 0 0 0 8.084 8.084h25.152a8.082 8.082 0 0 0 8.084-8.084 8.082 8.082 0 0 0-8.084-8.084zm-77.394-26.291h-25.149a8.082 8.082 0 0 0-8.084 8.084 8.084 8.084 0 0 0 8.084 8.084h25.149a8.082 8.082 0 0 0 8.084-8.084 8.082 8.082 0 0 0-8.084-8.084zm0 26.291h-25.149a8.084 8.084 0 0 0 0 16.168h25.149a8.082 8.082 0 0 0 8.084-8.084 8.082 8.082 0 0 0-8.084-8.084zm-77.392-26.291H48.76a8.082 8.082 0 0 0-8.084 8.084 8.082 8.082 0 0 0 8.084 8.084h25.152a8.082 8.082 0 0 0 8.084-8.084 8.084 8.084 0 0 0-8.085-8.084zm0 26.291H48.76a8.082 8.082 0 0 0-8.084 8.084 8.082 8.082 0 0 0 8.084 8.084h25.152c4.466 0 8.084-3.618 8.084-8.084s-3.619-8.084-8.085-8.084z"/></svg>